<svg width="150" height="150" fill="none" xmlns="http://www.w3.org/2000/svg"><g clip-path="url(#clip0_709_769)"><path d="M146.215 128.497h-9.777v-5.465a2.41 2.41 0 00-4.82 0v5.465h-21.762v-5.465a2.41 2.41 0 00-4.821 0v5.465H83.273v-5.465a2.41 2.41 0 00-4.82 0v5.465H56.69v-5.465a2.41 2.41 0 00-4.82 0v5.465H30.108v-5.465a2.41 2.41 0 00-4.821 0v5.465H4.821v-15.593h5.16a2.41 2.41 0 000-4.82h-5.16V93.405h5.16a2.41 2.41 0 000-4.82h-5.16V73.906h5.16a2.41 2.41 0 000-4.82h-5.16V54.407h5.16a2.41 2.41 0 000-4.82h-5.16v-14.68h5.16a2.41 2.41 0 000-4.82h-5.16V19.093a2.41 2.41 0 00-4.821 0v111.814a2.41 2.41 0 002.41 2.411h143.805a2.41 2.41 0 000-4.821zm1.428-32.166c-.099-.002-10.021-.265-17.825-4.167-7.872-3.936-15.466-16.544-31.097-16.544a2.41 2.41 0 00-.698.103 2.41 2.41 0 00-.698-.103c-.399 0-.79.01-1.178.027a51.093 51.093 0 01-1.105-4.864c-3.683-20.885-9.48-42.413-24.558-43.733a2.41 2.41 0 00-.467.006 2.417 2.417 0 00-.462-.006C54.477 28.37 48.68 49.898 44.997 70.784c-1.746 9.904-6.058 18.346-12.815 25.093-5.072 5.064-9.702 7.224-9.75 7.246a2.41 2.41 0 001.997 4.387c.214-.097 5.328-2.453 10.997-8.06 5.2-5.145 11.906-14.15 14.318-27.829 4.707-26.69 10.946-38.955 20.231-39.768.015 0 .03-.004.044-.006l.045.006c9.285.813 15.525 13.078 20.23 39.768a55.905 55.905 0 001.031 4.665c-11.764 2.665-18.32 12.49-25.098 15.879C58.453 96.05 48.5 96.329 48.4 96.33a2.41 2.41 0 00.11 4.819c.449-.01 11.112-.295 19.873-4.675 7.798-3.899 13.76-13.407 24.392-15.58 3.147 8.607 7.92 14.676 11.839 18.553 5.669 5.608 10.782 7.964 10.997 8.061a2.409 2.409 0 003.19-1.199 2.408 2.408 0 00-1.198-3.19c-.156-.071-13.352-6.246-19.861-22.719a2.15 2.15 0 00.28-.065c.222.067.456.104.699.104 13.663 0 20.07 11.6 28.941 16.035 8.761 4.38 19.424 4.665 19.874 4.675a2.41 2.41 0 10.107-4.819z" fill="#F1F1F1"/></g><defs><clipPath id="clip0_709_769"><path fill="#fff" d="M0 0h150v150H0z"/></clipPath></defs></svg>