<svg width="10" height="10" fill="none" xmlns="http://www.w3.org/2000/svg"><path d="M6.104 7.226a.754.754 0 01-.533.15c-.306-.034-.58-.265-.735-.617a1.55 1.55 0 01-.096-.89c-.487.261-1.111.853-1.111 2.173 0 .757.615 1.372 1.372 1.372a1.374 1.374 0 001.103-2.188z" fill="#fff"/><path d="M9.085 5.679L9.04 4.89l-.48.625c-.039.05-.12.138-.225.219.042-.137.078-.292.103-.464.084-.593.031-1.505-.695-2.474l-.305-.407-.2.467c-.23.54-.602.81-.949.69-.266-.093-.483-.398-.594-.838-.104-.41-.164-1.13.138-2.239L5.96 0l-.475.107C3.882.468 2.8 1.607 2.36 3.401a7.975 7.975 0 00-.215 1.951 3.195 3.195 0 01-.573-.582l-.361-.53-.165.62A4.095 4.095 0 004.95 10a1.96 1.96 0 01-1.908-1.958c0-1.37.589-2.1 1.083-2.472a2.544 2.544 0 011.105-.48l.678-.085-.406.55a.98.98 0 00-.129.97c.077.174.187.26.263.269.096.01.192-.1.24-.165l.192-.26.24.215c.414.371.651.903.651 1.458A1.96 1.96 0 015.051 10a4.095 4.095 0 004.034-4.321z" fill="#fff"/></svg>