<svg width="126" height="42" fill="none" xmlns="http://www.w3.org/2000/svg"><path d="M52.174 6.549h21.5v6.737H59.985v2.028h6.342c2.784 0 4.962.791 6.535 2.373 1.572 1.582 2.359 3.573 2.359 5.972 0 2.398-.787 4.401-2.36 6.009-1.572 1.608-3.75 2.411-6.534 2.411H52.174V6.55zM65.36 22.05h-5.375v3.292h5.375c.567 0 1.031-.14 1.392-.421.361-.281.541-.69.541-1.225 0-.536-.18-.944-.54-1.225-.362-.28-.826-.421-1.393-.421zm34.961 10.03H92.51V13.285h-9.242v18.793h-7.811V6.55h24.864v25.53zm25.212 0h-8.856l-.928-2.986h-9.28l-.928 2.985h-5.22v-7.29l5.877-18.24h9.822l9.513 25.53zm-11.872-9.723l-2.552-8.23-2.552 8.23h5.104z" fill="#fff"/><path d="M52.295 6.562h-10.68l5.72 20.05H26.981l1.744 5.467H59.66L52.295 6.562z" fill="#F59025"/><path d="M37.933 41.193l-2.394-7.164h-8.287l-2.21-7.163-13.257.11-3.13-10.572H0l6.997 24.789h30.936z" fill="#9CA3AC"/><path d="M37.564 0H5.156l7.734 24.789h32.04L37.564 0z" fill="#2D9586"/><path d="M39.415 36.816h2.009v.604h-1.32v1.07h.379c.384 0 .674.128.868.387.199.253.298.575.298.964 0 .39-.1.713-.298.971-.194.254-.484.38-.868.38h-1.068v-4.376zm1.001 2.277h-.311v1.496h.311a.43.43 0 00.385-.203c.093-.136.139-.317.139-.545 0-.227-.046-.409-.14-.544a.43.43 0 00-.384-.204zm4.124 2.179c-.412 0-.721-.182-.929-.545-.207-.367-.325-.862-.351-1.483h-.517v1.949h-.69v-4.377h.69v1.824h.523c.036-.577.157-1.036.365-1.377.212-.346.515-.519.908-.519.433 0 .756.208.968.623.212.416.318.963.318 1.64 0 .679-.106 1.226-.318 1.641-.212.416-.535.624-.968.624zm0-.61c.384 0 .576-.552.576-1.654 0-1.102-.192-1.654-.577-1.654-.38 0-.57.552-.57 1.654 0 1.102.19 1.653.57 1.653zm2.46.531h-.69v-4.377h1.067c.385 0 .674.13.869.387.198.254.298.576.298.965 0 .39-.1.713-.298.971-.195.254-.484.38-.869.38H47v1.674zm.31-2.277a.431.431 0 00.385-.203c.093-.136.14-.318.14-.545 0-.227-.047-.409-.14-.545a.431.431 0 00-.384-.203h-.312v1.496h.312zm3.746 1.732c-.212.416-.535.624-.968.624-.433 0-.755-.206-.968-.617-.207-.416-.311-.965-.311-1.647 0-.678.104-1.225.311-1.64.213-.416.535-.624.968-.624.433 0 .756.208.968.623.212.416.318.963.318 1.64 0 .679-.106 1.226-.318 1.641zm-.968.013c.385 0 .577-.55.577-1.653 0-1.102-.192-1.654-.577-1.654-.38 0-.57.552-.57 1.654 0 1.102.19 1.653.57 1.653zm5.065.532h-.696V37.42h-.935v3.773h-.69v-4.377h2.32v4.377zm1.305 0h-.69v-4.377h1.068c.384 0 .674.13.868.387.199.254.298.576.298.965 0 .39-.099.713-.298.971-.194.254-.484.38-.868.38h-.378v1.674zm.311-2.277a.431.431 0 00.385-.203c.093-.136.14-.318.14-.545 0-.227-.047-.409-.14-.545a.431.431 0 00-.385-.203h-.311v1.496h.311zm3.746 1.732c-.213.416-.535.624-.968.624-.433 0-.756-.206-.968-.617-.208-.416-.312-.965-.312-1.647 0-.678.104-1.225.312-1.64.212-.416.535-.624.968-.624.433 0 .755.208.968.623.212.416.318.963.318 1.64 0 .679-.106 1.226-.318 1.641zm-.968.013c.384 0 .577-.55.577-1.653 0-1.102-.193-1.654-.577-1.654-.38 0-.57.552-.57 1.654 0 1.102.19 1.653.57 1.653zm4.938.532h-.683v-2.789l-.782 2.789h-.245l-.769-2.789v2.789h-.69v-4.377h.895l.69 2.448.703-2.448h.881v4.377zm.615-4.377h.69v1.673h.378c.384 0 .674.13.868.388.2.253.299.575.299.964 0 .39-.1.713-.299.971-.194.254-.484.38-.868.38H65.1v-4.376zm1.002 2.277h-.312v1.496h.311a.431.431 0 00.385-.203c.093-.136.14-.317.14-.545 0-.227-.047-.409-.14-.544a.431.431 0 00-.385-.204zm2.293 2.1h-.69v-4.377h.69v4.377zm3.549-4.377h.69v4.377h-3.62v-4.377h.69v3.773h.775v-3.773h.69v3.773h.775v-3.773zm1.062 4.456v-.61c.11 0 .197-.029.258-.086.062-.057.118-.194.166-.413.053-.223.095-.556.126-.998l.16-2.349h1.855v4.377h-.696V37.42h-.517l-.12 1.791a7.03 7.03 0 01-.145 1.083c-.066.28-.157.49-.272.63a.919.919 0 01-.358.276 1.268 1.268 0 01-.457.072zm4.991-.079h-1.81v-4.377h1.81v.604h-1.12v1.24h1.073v.604h-1.074v1.325h1.12v.604zm2.812 0h-.696v-1.949h-.935v1.949h-.69v-4.377h.69v1.824h.935v-1.824h.696v4.377zm2.936 0h-.697v-1.949h-.934v1.949h-.69v-4.377h.69v1.824h.934v-1.824h.697v4.377zm2.723-.545c-.212.416-.534.624-.968.624-.433 0-.755-.206-.967-.617-.208-.416-.312-.965-.312-1.647 0-.678.104-1.225.312-1.64.212-.416.534-.624.968-.624.433 0 .755.208.967.623.212.416.319.963.319 1.64 0 .679-.107 1.226-.319 1.641zm-.968.013c.385 0 .577-.55.577-1.653 0-1.102-.192-1.654-.576-1.654-.38 0-.57.552-.57 1.654 0 1.102.19 1.653.57 1.653zm2.427.532h-.657v-4.377h.696v2.658l.935-2.658h.69v4.377h-.69v-2.73l-.974 2.73zm1.306-5.099a.962.962 0 01-.81.407.962.962 0 01-.808-.407l.305-.23a.565.565 0 00.504.263.565.565 0 00.504-.262l.305.23zm4.188 5.099h-.709l-.153-.892h-.874l-.153.892h-.71l.902-4.377h.796l.901 4.377zm-.941-1.496l-.358-2.1-.358 2.1h.716zm2.423 1.496h-1.214v-4.377h1.167c.332 0 .583.103.756.309.172.205.258.474.258.807 0 .538-.205.872-.616 1.004.199.03.36.15.484.36.128.206.192.445.192.716 0 .363-.086.652-.259.866-.168.21-.424.315-.769.315zm-.213-2.533c.314 0 .471-.205.471-.617 0-.415-.157-.623-.47-.623h-.312v1.24h.311zm.027 1.93c.336 0 .504-.222.504-.664a.83.83 0 00-.126-.479c-.084-.122-.21-.183-.378-.183h-.338v1.325h.338zm2.77.603h-.69V37.42h-.683v-.604h2.055v.604h-.682v3.773zm3.088-.545c-.212.416-.535.624-.968.624-.433 0-.755-.206-.968-.617-.207-.416-.311-.965-.311-1.647 0-.678.104-1.225.311-1.64.213-.416.535-.624.968-.624.433 0 .756.208.968.623.212.416.318.963.318 1.64 0 .679-.106 1.226-.318 1.641zm-.968.013c.385 0 .577-.55.577-1.653 0-1.102-.192-1.654-.577-1.654-.38 0-.57.552-.57 1.654 0 1.102.19 1.653.57 1.653zm4.939.532h-.683v-2.789l-.782 2.789h-.245l-.769-2.789v2.789h-.69v-4.377h.895l.69 2.448.702-2.448h.882v4.377zm2.856 0h-.71l-.152-.892h-.875l-.153.892h-.709l.902-4.377h.795l.902 4.377zm-.942-1.496l-.358-2.1-.358 2.1h.716zm2.129 1.496h-.689V37.42h-.683v-.604h2.055v.604h-.683v3.773zm1.702 0h-.656v-4.377h.696v2.658l.934-2.658h.69v4.377h-.69v-2.73l-.974 2.73zm3.247.079a1.3 1.3 0 01-.709-.197 1.443 1.443 0 01-.477-.525l.484-.394c.172.337.395.505.669.505.345 0 .517-.236.517-.708 0-.223-.055-.394-.165-.512a.549.549 0 00-.418-.177h-.484v-.604h.431a.55.55 0 00.424-.164c.102-.11.153-.267.153-.472 0-.442-.168-.663-.504-.663a.54.54 0 00-.338.125.94.94 0 00-.252.334l-.464-.36c.119-.228.278-.403.477-.526.199-.122.418-.183.656-.183.345 0 .621.098.829.295.208.197.312.49.312.88 0 .24-.067.454-.199.642a.925.925 0 01-.577.368c.265.04.468.157.61.354.146.193.219.429.219.709 0 .38-.106.689-.319.925-.207.232-.499.348-.875.348zm3.918-.079h-.71l-.152-.892h-.875l-.152.892h-.71l.902-4.377h.795l.902 4.377zm-.942-1.496l-.357-2.1-.358 2.1h.715zM119.726 42v-.807h-2.002v-4.377h.689v3.773h.942v-3.773h.689v3.773h.371V42h-.689zm1.674-.807h-.656v-4.377h.696v2.658l.935-2.658h.689v4.377h-.689v-2.73l-.975 2.73zm2.936 0h-.656v-4.377h.696v2.658l.935-2.658H126v4.377h-.689v-2.73l-.975 2.73z" fill="#fff"/></svg>