<svg width="117" height="29" fill="none" xmlns="http://www.w3.org/2000/svg"><g style="mix-blend-mode:luminosity" opacity=".6"><path d="M.762 25.974c.079.013.176.018.291.018.36 0 .678-.13.881-.365.213-.24.323-.564.322-.939 0-.491-.273-.782-.823-.782a1.62 1.62 0 00-.282.018l-.39 2.05zm-.19-2.535c.263-.047.56-.07.86-.07.485 0 .874.112 1.137.338.25.208.408.518.413.976.002.602-.252 1.124-.64 1.434-.36.287-.817.412-1.491.412A5.52 5.52 0 010 26.474l.572-3.035zm6.781-.047l-.587 3.118h-.664l.585-3.118h.666zm5.579 2.975c-.24.078-.614.175-1.008.175-.428 0-.78-.11-1.04-.342-.25-.222-.393-.564-.394-.962a1.834 1.834 0 01.636-1.425c.35-.292.83-.454 1.37-.454.408 0 .708.08.828.139l-.197.565a1.685 1.685 0 00-.661-.13c-.31 0-.587.088-.795.25-.267.213-.447.583-.447 1.008.001.523.311.787.802.787a.865.865 0 00.336-.055l.124-.658h-.48l.101-.532h1.132l-.307 1.634zm4.748-2.975l-.586 3.118h-.666l.586-3.118h.665zm4.049.582h-.823l.114-.582h2.316l-.11.582h-.832l-.47 2.536h-.666l.47-2.536zm5.816 1.218l-.06-.671c-.015-.171-.035-.42-.049-.61h-.008c-.079.19-.167.43-.25.61l-.307.67h.674zm-.868.509l-.368.81h-.707l1.51-3.12h.855l.37 3.12h-.698l-.065-.81h-.897zm5.557-2.309h.666l-.476 2.535h1.197l-.11.583h-1.863l.586-3.118zm10.198 1.8l-.061-.671-.048-.61h-.009c-.078.19-.166.43-.248.61l-.31.67h.676zm-.868.509l-.368.81h-.708l1.51-3.12h.855l.371 3.12h-.698l-.065-.81h-.897zm7.413.666c-.24.078-.614.175-1.008.175-.429 0-.78-.11-1.04-.342-.25-.222-.393-.564-.394-.962a1.833 1.833 0 01.635-1.425c.35-.292.831-.454 1.371-.454.407 0 .708.08.828.139l-.197.565a1.69 1.69 0 00-.662-.13c-.309 0-.586.088-.794.25-.268.213-.447.583-.447 1.008.001.523.311.787.802.787a.865.865 0 00.336-.055l.124-.658h-.48l.1-.532h1.133l-.307 1.634zm5.533-1.18h-1.109l-.142.754h1.243l-.104.57h-1.91l.586-3.12h1.844l-.11.57h-1.173l-.128.666h1.108l-.104.56zm3.345 1.323l.587-3.118h.782l.412 1.188c.126.399.21.723.285 1.065h.014c.013-.319.054-.66.14-1.12l.212-1.133h.618l-.58 3.118h-.69l-.436-1.245a9.666 9.666 0 01-.307-1.086l-.014.004c-.037.3-.109.745-.201 1.235l-.2 1.092h-.621zm8.391-.087c-.167.074-.447.133-.823.133-.822 0-1.378-.5-1.38-1.323 0-.698.313-1.244.784-1.559.322-.226.707-.333 1.145-.333.338 0 .592.078.68.135l-.179.541a1.372 1.372 0 00-.564-.102c-.269 0-.523.084-.711.24-.264.214-.43.57-.43 1.004.003.495.281.828.83.828.217 0 .433-.036.591-.1l.057.536zm3.957.087l.24-1.273-.611-1.845h.713l.2.791c.056.26.089.407.12.565h.01c.093-.168.185-.343.318-.57l.466-.786h.794l-1.34 1.832-.244 1.286h-.666z" fill="#fff"/><path d="M108.073 15.12h.837c.957 0 1.495-.407 1.612-1.224l.064-.515c.119-.826-.3-1.24-1.257-1.24h-2.11l-.403 2.867c.215.044.419.073.612.089.194.015.409.024.645.024z" fill="#F04D44"/><path d="M116.999 14.472C116.999 6.479 110.52 0 102.527 0c-1.549 0-3.037.25-4.438.7l-1.641 10.995a1.08 1.08 0 01-.084.278l-.634 4.55c-.032.247-.063.494-.089.741-.028.247-.046.486-.057.716a4.04 4.04 0 00.016.637c.022.194.06.36.113.5.15.172.361.301.63.387.268.086.558.13.87.13.418 0 .82-.08 1.207-.235.387-.155.65-.384.79-.684a2.69 2.69 0 00.185-.654c.048-.273.11-.657.186-1.151l.837-6.058c.043-.268.091-.475.145-.621a.595.595 0 01.235-.314.832.832 0 01.393-.113c.162-.01.371-.016.629-.016.301 0 .537.003.709.008.172.006.296.04.371.105.075.064.112.17.112.315 0 .144-.021.357-.063.636l-.839 6.058c-.043.29-.088.593-.137.91a5.214 5.214 0 01-.201.863 4.79 4.79 0 01-.693 1.353 4.548 4.548 0 01-1.08 1.047c-.418.29-.89.513-1.41.668a5.442 5.442 0 01-1.667.218c-1.247-.01-2.207-.294-2.884-.853-.676-.559-1.026-1.37-1.048-2.433a9.8 9.8 0 01.04-.838c.028-.302.067-.607.122-.918l.836-6.075a4.33 4.33 0 01.093-.435l1.27-8.501c-4.355 2.495-7.296 7.178-7.296 12.556 0 7.897 6.328 14.304 14.189 14.457l1.535-10.279.957-6.88a1.389 1.389 0 01-.499-.314.742.742 0 01-.211-.379l.098-.79a.549.549 0 01.202-.362.61.61 0 01.394-.137h5.06c1.341 0 2.293.288 2.851.862.559.575.752 1.448.58 2.618l-.113.855c-.162 1.127-.601 1.97-1.321 2.529-.72.56-1.746.838-3.078.838h-.337a49.893 49.893 0 00-1.193-.041 4.09 4.09 0 01-.612-.04h-.032v-.016l-1.695 11.35c6.895-1.105 12.169-7.064 12.169-14.271z" fill="#F04D44"/><path d="M103.014 10.216c0-.146-.037-.25-.112-.315-.075-.065-.199-.1-.371-.105a25.898 25.898 0 00-.709-.007c-.258 0-.467.004-.629.015a.842.842 0 00-.393.113.597.597 0 00-.235.313 3.469 3.469 0 00-.145.622l-.837 6.057c-.075.495-.138.88-.186 1.153-.048.274-.11.49-.186.653-.14.3-.402.529-.789.684a3.195 3.195 0 01-1.208.234 2.84 2.84 0 01-.87-.13 1.367 1.367 0 01-.629-.386 2.062 2.062 0 01-.113-.5 4.062 4.062 0 01-.016-.637c.01-.23.03-.469.057-.716.026-.247.057-.494.09-.741l.633-4.55c.038-.088.07-.18.084-.278L98.092.699a14.47 14.47 0 00-2.74 1.216l-1.269 8.501a4.237 4.237 0 00-.092.436l-.837 6.074c-.054.312-.094.617-.122.918-.026.3-.04.58-.04.839.022 1.063.372 1.874 1.048 2.434.677.558 1.637.842 2.884.852a5.443 5.443 0 001.668-.218 4.9 4.9 0 001.409-.669 4.57 4.57 0 001.081-1.046c.3-.41.531-.86.692-1.353.086-.26.153-.546.201-.863.049-.317.094-.62.137-.91l.839-6.058c.042-.28.063-.492.063-.636zm7.569 3.166l-.064.515c-.118.817-.656 1.224-1.612 1.224h-.837c-.236 0-.452-.008-.645-.023a5.174 5.174 0 01-.612-.09l.403-2.867h2.11c.957 0 1.375.414 1.257 1.24zm2.047-2.732c-.559-.574-1.51-.86-2.852-.86h-5.06a.61.61 0 00-.394.136.552.552 0 00-.202.362l-.097.79a.737.737 0 00.21.379c.119.123.283.227.499.313l-.957 6.88-1.535 10.28c.095.001.188.014.284.014.785 0 1.551-.08 2.302-.2l1.695-11.35v.016h.033c.106.022.311.034.612.04.3.005.697.019 1.192.041h.338c1.331 0 2.357-.28 3.078-.839.719-.558 1.159-1.401 1.32-2.529l.113-.854c.172-1.17-.021-2.043-.579-2.619zM11.88 19.275l.773-5.24c.208-1.377.49-3.13.849-4.96h-.057a90.765 90.765 0 01-2.186 4.79l-2.602 5.202H6.546l-.453-5.146a139.953 139.953 0 01-.282-4.846h-.039c-.358 1.678-.735 3.583-1.056 4.96l-1.263 5.24H.965L4.15 6.568h3.64l.395 4.827c.076 1.187.208 2.64.226 4.052h.076c.49-1.413 1.169-2.903 1.716-4.052l2.356-4.827h3.676L14.52 19.275h-2.64zm11.574-7.295a4.11 4.11 0 00-.735-.076c-1.754 0-3.036 2.15-3.036 3.866 0 .904.358 1.526 1.113 1.526.81 0 1.81-.924 2.224-3.186l.434-2.13zm-.792 7.296c.019-.547.076-1.169.132-1.828h-.056c-.849 1.526-2.017 2.036-3.092 2.036-1.66 0-2.79-1.283-2.79-3.205 0-3.111 2.054-6.43 6.598-6.43 1.093 0 2.281.208 3.054.453l-.98 4.826c-.226 1.188-.396 2.997-.359 4.148h-2.507zm4.506-.002l1.037-5.486c.264-1.395.377-2.94.471-3.733h2.357l-.17 1.885h.057c.64-1.226 1.678-2.092 2.941-2.092.17 0 .34 0 .509.018l-.528 2.64c-.132-.019-.283-.019-.434-.019-1.734 0-2.545 1.547-2.884 3.356l-.64 3.431h-2.716zm6.972 0L36.668 5.89h2.696l-1.509 8.01h.037c.283-.358.566-.716.83-1.056l2.357-2.79h3.336l-3.92 3.79 2.563 5.43h-3.016l-1.621-3.941-1.02.961-.565 2.98h-2.695zm14.858-7.447c-1.262 0-1.979 1.038-2.168 1.904 2.112.02 3.167-.283 3.167-1.112 0-.471-.376-.792-.999-.792zm2.395 6.92c-1.075.546-2.413.716-3.431.716-2.64 0-3.997-1.49-3.997-3.884 0-2.81 2.035-5.731 5.373-5.731 1.866 0 3.205 1.036 3.205 2.752 0 2.357-2.281 3.206-5.977 3.11 0 .265.095.68.283.944.358.47.98.716 1.772.716 1 0 1.848-.227 2.583-.584l.189 1.96zm6.952-11.274l-.49 2.582h1.961l-.395 2.056h-1.96l-.624 3.13c-.075.376-.15.847-.15 1.167 0 .453.188.774.773.774.245 0 .508 0 .754-.038l-.32 2.13c-.34.133-1.019.208-1.603.208-1.621 0-2.395-.83-2.395-1.98 0-.509.057-1.018.19-1.715l.716-3.676h-1.17l.378-2.056h1.187l.378-1.941 2.77-.641zm1.339 11.802l1.753-9.22h2.715l-1.753 9.22h-2.715zm4.996-.001l1.168-6.222c.227-1.168.377-2.186.49-2.997h2.413l-.188 1.527h.038c.867-1.207 2.017-1.734 3.242-1.734 1.509 0 2.357.924 2.357 2.508 0 .414-.076 1.111-.151 1.564l-1.018 5.354h-2.715l.962-5.109c.056-.32.094-.698.094-1.037 0-.64-.226-1.093-.905-1.093-.885 0-1.922 1.112-2.3 3.148l-.773 4.091H64.68zm17.55-7.182c-.206-.094-.602-.17-.98-.17-1.64 0-2.809 1.829-2.809 3.582 0 .924.415 1.602 1.245 1.602.885 0 1.79-.98 2.074-2.544l.47-2.47zm-6.334 8.465c.509.302 1.64.509 2.414.509 1.357 0 2.374-.603 2.752-2.45l.15-.774h-.037c-.716.924-1.546 1.357-2.64 1.357-1.828 0-2.94-1.488-2.96-3.28 0-3.054 2.169-6.07 6.185-6.07 1.3 0 2.45.226 3.412.64l-1.395 7.598c-.32 1.697-.83 3.206-1.942 4.09-1 .793-2.338 1.038-3.563 1.038-1.226 0-2.376-.226-2.999-.585l.623-2.073z" fill="#fff"/><path d="M63.914 7.655l-.686-1.423-.868 1.319-.848 1.286h2.97l-.568-1.182z" fill="#F04D44"/></g></svg>