<svg width="10" height="10" fill="none" xmlns="http://www.w3.org/2000/svg"><g clip-path="url(#clip0_709_1069)" fill="#fff"><path d="M7.203 4.558h.008a1.732 1.732 0 001.722-1.73c0-.523-.283-.952-.625-1.418L7.203 0 6.097 1.41c-.342.466-.624.895-.624 1.417 0 .954.776 1.73 1.73 1.73z"/><path d="M7.205 5.144h-.01a2.319 2.319 0 01-2.307-2.317c0-.315.072-.597.186-.86l-.643-.82-2.264 2.886-.005.007c-.578.788-1.096 1.578-1.096 2.595A3.368 3.368 0 004.418 10h.013a3.368 3.368 0 003.365-3.365c0-.555-.155-1.043-.39-1.5a2.34 2.34 0 01-.201.009z"/></g><defs><clipPath id="clip0_709_1069"><path fill="#fff" d="M0 0h10v10H0z"/></clipPath></defs></svg>