<svg width="10" height="10" fill="none" xmlns="http://www.w3.org/2000/svg"><path d="M4.512 3.478a.489.489 0 00.976.016c-.023-.106-.17-.404-.49-.86-.317.45-.463.742-.486.844z" fill="#fff"/><path d="M3.104 4.531c.397 0 .76-.185.992-.495a1.067 1.067 0 01-.17-.579v-.018l.002-.018c.046-.373.545-1.075.839-1.46a.293.293 0 01.466 0c.294.387.794 1.094.84 1.48l.002.017v.017c0 .208-.062.402-.168.565.232.307.594.491.99.491h.076c.176-.324.273-.692.273-1.074 0-.512-.348-1.239-1.034-2.161A15.386 15.386 0 005.214.093a.293.293 0 00-.428 0c-.02.021-.505.54-.998 1.203-.686.922-1.034 1.65-1.034 2.161 0 .382.097.75.273 1.074h.077z" fill="#fff"/><path d="M9.707 5.117h-2.81c-.565 0-1.09-.26-1.431-.69a1.082 1.082 0 01-.93-.001 1.827 1.827 0 01-1.432.691H.293A.293.293 0 000 5.41c0 .37.044.73.127 1.074h9.746A4.6 4.6 0 0010 5.41a.293.293 0 00-.293-.293zM4.589 10h.82a4.591 4.591 0 004.28-2.93H.31A4.591 4.591 0 004.589 10z" fill="#fff"/></svg>