<svg width="15" height="15" fill="none" xmlns="http://www.w3.org/2000/svg"><g clip-path="url(#clip0_725_80)"><path d="M4.13 4.064a.224.224 0 00-.095.065.148.148 0 00-.035.094v6.6c0 .033.012.066.035.094.024.028.057.05.096.065a.298.298 0 00.246-.02l5.603-3.3a.197.197 0 00.066-.062.141.141 0 00.024-.077.141.141 0 00-.024-.078.197.197 0 00-.066-.061l-5.603-3.3a.298.298 0 00-.246-.02z" fill="#40D9C3"/></g><defs><clipPath id="clip0_725_80"><rect y="15" width="15" height="15" rx="1" transform="rotate(-90 0 15)" fill="#fff"/></clipPath></defs></svg>